<?xml version="1.0" standalone="no"?>
<!DOCTYPE svg PUBLIC "-//W3C//DTD SVG 20010904//EN"
 "http://www.w3.org/TR/2001/REC-SVG-20010904/DTD/svg10.dtd">
<svg version="1.0" xmlns="http://www.w3.org/2000/svg"
 width="306.000000pt" height="345.000000pt" viewBox="0 0 306.000000 345.000000"
 preserveAspectRatio="xMidYMid meet">

<g transform="translate(0.000000,345.000000) scale(0.100000,-0.100000)"
fill="#000000" stroke="none">
<path d="M1308 1597 c-115 -67 -208 -128 -208 -135 0 -27 143 -158 202 -185
210 -99 421 -63 586 99 39 40 72 78 72 87 0 15 -411 258 -433 256 -7 -1 -105
-56 -219 -122z"/>
<path d="M360 1049 c-151 -88 -285 -166 -298 -173 l-23 -12 38 -42 c56 -61
1319 -788 1398 -805 107 -22 108 -22 818 388 491 283 661 386 690 417 34 38
36 42 20 53 -10 6 -146 85 -302 175 -244 140 -286 161 -295 147 -155 -220
-308 -345 -514 -423 -126 -47 -222 -64 -362 -64 -232 0 -433 66 -611 200 -79
59 -186 170 -235 245 -20 30 -40 55 -43 54 -3 0 -130 -72 -281 -160z"/>
</g>
</svg>
